<svg width="16" height="21" viewBox="0 0 16 21" fill="none" xmlns="http://www.w3.org/2000/svg">
<path d="M14.1371 20.853H1.57226C1.57226 20.853 1.53262 20.8262 1.51941 20.8262C0.515279 20.5856 0 19.9172 0 18.888C0 13.247 0 7.59262 0 1.95162C0 0.775302 0.766312 0 1.92899 0C4.42611 0 6.93645 0 9.43357 0C9.49963 0 9.5789 0 9.65818 0V0.240611C9.65818 1.5506 9.65818 2.8606 9.65818 4.17059C9.65818 5.33355 10.4245 6.10885 11.5872 6.10885C12.882 6.10885 14.1768 6.10885 15.4716 6.10885C15.5376 6.10885 15.6169 6.10885 15.7094 6.10885C15.7094 6.20242 15.7094 6.28262 15.7094 6.34946C15.7094 7.98027 15.7094 9.62444 15.7094 11.2553C15.7094 13.8218 15.7094 16.3883 15.7094 18.9548C15.7094 19.7969 15.247 20.4787 14.5071 20.746C14.3882 20.7861 14.2693 20.8129 14.1371 20.853ZM8.45586 11.0414C9.44678 11.0414 10.4245 11.0414 11.4154 11.0414C11.8118 11.0414 12.076 10.7874 12.0892 10.4398C12.0892 10.0789 11.8118 9.82495 11.4154 9.82495C11.138 9.82495 10.8473 9.82495 10.5698 9.82495C8.89186 9.82495 7.20069 9.82495 5.52273 9.82495C5.24527 9.82495 5.03388 9.91852 4.91497 10.1725C4.70357 10.5869 5.00745 11.0547 5.49631 11.0547C6.48723 11.0547 7.47815 11.0547 8.46907 11.0547L8.45586 11.0414ZM8.45586 12.2578C7.47815 12.2578 6.50044 12.2578 5.52273 12.2578C5.3774 12.2578 5.23206 12.2979 5.09994 12.3647C4.87533 12.4984 4.78284 12.7791 4.84891 13.0197C4.92818 13.3138 5.15279 13.4742 5.4831 13.4742C7.45173 13.4742 9.42035 13.4742 11.389 13.4742C11.7986 13.4742 12.0628 13.2202 12.0628 12.8593C12.0628 12.4984 11.7854 12.2578 11.3758 12.2578C10.3981 12.2578 9.42035 12.2578 8.44265 12.2578H8.45586ZM8.45586 15.9204C9.44678 15.9204 10.4245 15.9204 11.4154 15.9204C11.6929 15.9204 11.9175 15.8135 12.0364 15.5461C12.2214 15.1318 11.9175 14.6906 11.4286 14.6906C9.44678 14.6906 7.47815 14.6906 5.49631 14.6906C5.11315 14.6906 4.83569 14.958 4.83569 15.3055C4.83569 15.6531 5.11315 15.9071 5.4831 15.9071C6.47402 15.9071 7.46494 15.9071 8.45586 15.9071V15.9204ZM3.02561 11.028C3.35592 11.028 3.62016 10.7473 3.62016 10.4131C3.62016 10.0789 3.34271 9.81159 3.0124 9.81159C2.68209 9.81159 2.40463 10.0923 2.40463 10.4398C2.40463 10.774 2.6953 11.0414 3.0124 11.0414L3.02561 11.028ZM3.62016 12.8593C3.62016 12.5251 3.34271 12.2578 3.02561 12.2444C2.6953 12.2444 2.41785 12.5118 2.41785 12.846C2.41785 13.1801 2.6953 13.4742 3.02561 13.4609C3.35592 13.4609 3.62016 13.1801 3.62016 12.846V12.8593ZM3.62016 15.3055C3.62016 14.9714 3.35592 14.6906 3.02561 14.6906C2.6953 14.6906 2.41785 14.958 2.40463 15.2788C2.40463 15.613 2.66888 15.9071 2.99919 15.9071C3.32949 15.9071 3.60695 15.6397 3.60695 15.3055H3.62016Z" fill="#0087C8"/>
<path d="M15.2469 4.89241C15.0884 4.89241 14.877 4.89241 14.6656 4.89241C13.6218 4.89241 12.5913 4.89241 11.5475 4.89241C11.0983 4.89241 10.8605 4.65179 10.8605 4.19731C10.8605 2.94078 10.8605 1.67089 10.8605 0.454468C12.3138 1.92487 13.7804 3.40864 15.2337 4.87904L15.2469 4.89241Z" fill="#0087C8"/>
</svg>
