<svg width="22" height="21" viewBox="0 0 22 21" fill="none" xmlns="http://www.w3.org/2000/svg">
<path d="M16.2227 3.76959C15.5489 3.76959 15.0072 4.31765 15.0072 4.99938C15.0072 5.68111 15.5489 6.22917 16.2227 6.22917C16.8966 6.22917 17.4383 5.68111 17.4383 4.99938C17.4383 4.31765 16.8966 3.76959 16.2227 3.76959Z" fill="#0087C8"/>
<path d="M10.8453 5.34692C8.04433 5.34692 5.75861 7.65946 5.75861 10.4933C5.75861 13.3272 8.04433 15.6397 10.8453 15.6397C13.6463 15.6397 15.9321 13.3272 15.9321 10.4933C15.9321 7.65946 13.6463 5.34692 10.8453 5.34692ZM10.8453 13.795C9.04846 13.795 7.5819 12.3113 7.5819 10.4933C7.5819 8.67538 9.04846 7.19161 10.8453 7.19161C12.6422 7.19161 14.1088 8.67538 14.1088 10.4933C14.1088 12.3113 12.6422 13.795 10.8453 13.795Z" fill="#0087C8"/>
<path d="M14.8883 20.9332H6.64385C3.22187 20.9332 0.434082 18.1127 0.434082 14.6505V6.30936C0.434082 2.84723 3.22187 0.0267334 6.64385 0.0267334H14.8883C18.3103 0.0267334 21.0981 2.84723 21.0981 6.30936V14.6505C21.0981 18.1127 18.3103 20.9332 14.8883 20.9332ZM6.64385 2.00509C4.29206 2.00509 2.38949 3.94335 2.38949 6.30936V14.6505C2.38949 17.0299 4.30528 18.9548 6.64385 18.9548H14.8883C17.2401 18.9548 19.1427 17.0165 19.1427 14.6505V6.30936C19.1427 3.92998 17.2269 2.00509 14.8883 2.00509H6.64385Z" fill="#0087C8"/>
</svg>
