<svg xmlns="http://www.w3.org/2000/svg" width="195" height="21" viewBox="0 0 195 21" fill="none">
  <g clip-path="url(#clip0_33_85)">
    <path d="M74.6494 9.5175C74.1605 4.25079 69.774 0.1203 64.4495 0.1203C59.1249 0.1203 54.7252 4.25079 54.2496 9.5175H54.21V11.4424H54.2496C54.7385 16.7091 59.1249 20.8396 64.4495 20.8396C69.774 20.8396 74.1737 16.7091 74.6494 11.4424H74.689V9.5175H74.6494ZM72.7336 9.5175H68.8756C68.7831 6.92425 68.2943 4.38446 67.4355 2.60661C70.2761 3.7161 72.3768 6.34945 72.7336 9.5175ZM64.4495 18.9147C63.6435 18.9147 62.1241 16.2813 61.9391 11.4424H66.9598C66.7748 16.2813 65.2554 18.9147 64.4495 18.9147ZM61.9391 9.5175C62.1241 4.67854 63.6435 2.04519 64.4495 2.04519C65.2554 2.04519 66.7748 4.67854 66.9598 9.5175H61.9391ZM61.4635 2.60661C60.6047 4.38446 60.1291 6.91088 60.0234 9.5175H56.1654C56.5221 6.34945 58.6229 3.7161 61.4635 2.60661ZM56.1654 11.4424H60.0234C60.1159 14.0356 60.6047 16.5754 61.4635 18.3533C58.6229 17.2438 56.5221 14.6104 56.1654 11.4424ZM67.4355 18.3533C68.2943 16.5754 68.7699 14.049 68.8756 11.4424H72.7336C72.3768 14.6104 70.2761 17.2438 67.4355 18.3533Z" fill="#0087C8"/>
    <path d="M137.223 3.76956C136.549 3.76956 136.007 4.31762 136.007 4.99935C136.007 5.68108 136.549 6.22914 137.223 6.22914C137.897 6.22914 138.438 5.68108 138.438 4.99935C138.438 4.31762 137.897 3.76956 137.223 3.76956Z" fill="#0087C8"/>
    <path d="M131.845 5.34692C129.044 5.34692 126.759 7.65946 126.759 10.4933C126.759 13.3272 129.044 15.6397 131.845 15.6397C134.646 15.6397 136.932 13.3272 136.932 10.4933C136.932 7.65946 134.646 5.34692 131.845 5.34692ZM131.845 13.795C130.049 13.795 128.582 12.3113 128.582 10.4933C128.582 8.67538 130.049 7.19161 131.845 7.19161C133.642 7.19161 135.109 8.67538 135.109 10.4933C135.109 12.3113 133.642 13.795 131.845 13.795Z" fill="#0087C8"/>
    <path d="M135.888 20.9332H127.644C124.222 20.9332 121.434 18.1127 121.434 14.6505V6.30936C121.434 2.84723 124.222 0.0267334 127.644 0.0267334H135.888C139.31 0.0267334 142.098 2.84723 142.098 6.30936V14.6505C142.098 18.1127 139.31 20.9332 135.888 20.9332ZM127.644 2.00509C125.292 2.00509 123.389 3.94335 123.389 6.30936V14.6505C123.389 17.0299 125.305 18.9548 127.644 18.9548H135.888C138.24 18.9548 140.143 17.0165 140.143 14.6505V6.30936C140.143 3.92998 138.227 2.00509 135.888 2.00509H127.644Z" fill="#0087C8"/>
    <path d="M161.731 11.7899L162.3 8.007H158.719V5.54742C158.719 4.51814 159.221 3.50223 160.82 3.50223H162.445V0.294078C162.445 0.294078 160.965 0.0401001 159.551 0.0401001C156.592 0.0401001 154.663 1.84468 154.663 5.13303V8.02037H151.386V11.8033H154.663V20.9465H158.706V11.8033H161.718L161.731 11.7899Z" fill="#0087C8"/>
    <path d="M112.172 6.60343C112.172 2.99427 109.279 0.0802002 105.725 0.0802002H89.2357C85.6684 0.0802002 82.7881 3.00763 82.7881 6.60343V14.3698C82.7881 17.979 85.6816 20.8931 89.2357 20.8931H105.725C109.292 20.8931 112.172 17.9656 112.172 14.3698V6.60343ZM102.474 11.0681L95.0755 14.7708C94.7848 14.9312 93.7939 14.7174 93.7939 14.3832V6.79058C93.7939 6.45639 94.7848 6.24252 95.0755 6.40292L102.157 10.3062C102.448 10.4799 102.765 10.9077 102.461 11.0815L102.474 11.0681Z" fill="#0087C8"/>
    <path d="M193.533 18.8345L186.742 8.86251L185.976 7.73966L181.114 0.601527L180.718 0.0133667H174.746L176.199 2.15213L182.66 11.6429L183.426 12.7658L188.618 20.3985L189.015 20.9866H194.987L193.533 18.8479V18.8345ZM189.728 19.6098L184.338 11.683L183.571 10.5602L177.322 1.36346H180.017L185.078 8.79567L185.844 9.91852L192.437 19.5964H189.742L189.728 19.6098Z" fill="#0087C8"/>
    <path d="M183.585 10.5602L184.351 11.683L183.439 12.7524L176.45 20.9733H174.732L182.673 11.6295L183.585 10.5602Z" fill="#0087C8"/>
    <path d="M194.273 0L186.756 8.86251L185.844 9.93189L185.078 8.79567L185.989 7.72629L191.076 1.72438L192.556 0H194.273Z" fill="#0087C8"/>
    <path d="M36.7301 14.7976L32.8457 10.8676C32.4229 10.4399 32.4229 9.75813 32.8457 9.33038L36.2545 5.88162L30.6128 0.173788C30.4411 1.33663e-05 30.1504 1.33663e-05 29.9918 0.173788C25.5261 5.03948 25.6318 12.6455 30.3089 17.3775C34.9861 22.1095 42.5039 22.2164 47.3131 17.6983C47.4981 17.5245 47.4981 17.2438 47.3131 17.07L41.6715 11.3622L38.2627 14.811C37.8399 15.2387 37.1661 15.2387 36.7433 14.811L36.7301 14.7976Z" fill="#0087C8"/>
    <path d="M14.1371 20.853H1.57226C1.57226 20.853 1.53262 20.8262 1.51941 20.8262C0.515279 20.5856 0 19.9172 0 18.888C0 13.247 0 7.59262 0 1.95162C0 0.775302 0.766312 0 1.92899 0C4.42611 0 6.93645 0 9.43357 0C9.49963 0 9.5789 0 9.65818 0V0.240611C9.65818 1.5506 9.65818 2.8606 9.65818 4.17059C9.65818 5.33355 10.4245 6.10885 11.5872 6.10885C12.882 6.10885 14.1768 6.10885 15.4716 6.10885C15.5376 6.10885 15.6169 6.10885 15.7094 6.10885C15.7094 6.20242 15.7094 6.28262 15.7094 6.34946C15.7094 7.98027 15.7094 9.62444 15.7094 11.2553C15.7094 13.8218 15.7094 16.3883 15.7094 18.9548C15.7094 19.7969 15.247 20.4787 14.5071 20.746C14.3882 20.7861 14.2693 20.8129 14.1371 20.853ZM8.45586 11.0414C9.44678 11.0414 10.4245 11.0414 11.4154 11.0414C11.8118 11.0414 12.076 10.7874 12.0892 10.4398C12.0892 10.0789 11.8118 9.82495 11.4154 9.82495C11.138 9.82495 10.8473 9.82495 10.5698 9.82495C8.89186 9.82495 7.20069 9.82495 5.52273 9.82495C5.24527 9.82495 5.03388 9.91852 4.91497 10.1725C4.70357 10.5869 5.00745 11.0547 5.49631 11.0547C6.48723 11.0547 7.47815 11.0547 8.46907 11.0547L8.45586 11.0414ZM8.45586 12.2578C7.47815 12.2578 6.50044 12.2578 5.52273 12.2578C5.3774 12.2578 5.23206 12.2979 5.09994 12.3647C4.87533 12.4984 4.78284 12.7791 4.84891 13.0197C4.92818 13.3138 5.15279 13.4742 5.4831 13.4742C7.45173 13.4742 9.42035 13.4742 11.389 13.4742C11.7986 13.4742 12.0628 13.2202 12.0628 12.8593C12.0628 12.4984 11.7854 12.2578 11.3758 12.2578C10.3981 12.2578 9.42035 12.2578 8.44265 12.2578H8.45586ZM8.45586 15.9204C9.44678 15.9204 10.4245 15.9204 11.4154 15.9204C11.6929 15.9204 11.9175 15.8135 12.0364 15.5461C12.2214 15.1318 11.9175 14.6906 11.4286 14.6906C9.44678 14.6906 7.47815 14.6906 5.49631 14.6906C5.11315 14.6906 4.83569 14.958 4.83569 15.3055C4.83569 15.6531 5.11315 15.9071 5.4831 15.9071C6.47402 15.9071 7.46494 15.9071 8.45586 15.9071V15.9204ZM3.02561 11.028C3.35592 11.028 3.62016 10.7473 3.62016 10.4131C3.62016 10.0789 3.34271 9.81159 3.0124 9.81159C2.68209 9.81159 2.40463 10.0923 2.40463 10.4398C2.40463 10.774 2.6953 11.0414 3.0124 11.0414L3.02561 11.028ZM3.62016 12.8593C3.62016 12.5251 3.34271 12.2578 3.02561 12.2444C2.6953 12.2444 2.41785 12.5118 2.41785 12.846C2.41785 13.1801 2.6953 13.4742 3.02561 13.4609C3.35592 13.4609 3.62016 13.1801 3.62016 12.846V12.8593ZM3.62016 15.3055C3.62016 14.9714 3.35592 14.6906 3.02561 14.6906C2.6953 14.6906 2.41785 14.958 2.40463 15.2788C2.40463 15.613 2.66888 15.9071 2.99919 15.9071C3.32949 15.9071 3.60695 15.6397 3.60695 15.3055H3.62016Z" fill="#0087C8"/>
    <path d="M15.2469 4.89244C15.0884 4.89244 14.877 4.89244 14.6656 4.89244C13.6218 4.89244 12.5913 4.89244 11.5475 4.89244C11.0983 4.89244 10.8605 4.65182 10.8605 4.19734C10.8605 2.94081 10.8605 1.67092 10.8605 0.454498C12.3138 1.9249 13.7804 3.40867 15.2337 4.87907L15.2469 4.89244Z" fill="#0087C8"/>
  </g>
  <defs>
    <clipPath id="clip0_33_85">
      <rect width="195" height="21" fill="white"/>
    </clipPath>
  </defs>
</svg>