<svg xmlns="http://www.w3.org/2000/svg" width="195" height="21" viewBox="0 0 195 21" fill="none">
   
   <path d="M131.845 5.34692C129.044 5.34692 126.759 7.65946 126.759 10.4933C126.759 13.3272 129.044 15.6397 131.845 15.6397C134.646 15.6397 136.932 13.3272 136.932 10.4933C136.932 7.65946 134.646 5.34692 131.845 5.34692ZM131.845 13.795C130.049 13.795 128.582 12.3113 128.582 10.4933C128.582 8.67538 130.049 7.19161 131.845 7.19161C133.642 7.19161 135.109 8.67538 135.109 10.4933C135.109 12.3113 133.642 13.795 131.845 13.795Z" fill="#0087C8"/>
          <path d="M135.888 20.9332H127.644C124.222 20.9332 121.434 18.1127 121.434 14.6505V6.30936C121.434 2.84723 124.222 0.0267334 127.644 0.0267334H135.888C139.31 0.0267334 142.098 2.84723 142.098 6.30936V14.6505C142.098 18.1127 139.31 20.9332 135.888 20.9332ZM127.644 2.00509C125.292 2.00509 123.389 3.94335 123.389 6.30936V14.6505C123.389 17.0299 125.305 18.9548 127.644 18.9548H135.888C138.24 18.9548 140.143 17.0165 140.143 14.6505V6.30936C140.143 3.92998 138.227 2.00509 135.888 2.00509H127.644Z" fill="#0087C8"/>
</svg>
