<svg xmlns="http://www.w3.org/2000/svg" width="21" height="21" viewBox="0 0 21 21" fill="none">
  <path d="M20.6494 9.5175C20.1605 4.25079 15.774 0.1203 10.4495 0.1203C5.12493 0.1203 0.725243 4.25079 0.249601 9.5175H0.209961V11.4424H0.249601C0.738455 16.7091 5.12493 20.8396 10.4495 20.8396C15.774 20.8396 20.1737 16.7091 20.6494 11.4424H20.689V9.5175H20.6494ZM18.7336 9.5175H14.8756C14.7831 6.92425 14.2943 4.38446 13.4355 2.60661C16.2761 3.7161 18.3768 6.34945 18.7336 9.5175ZM10.4495 18.9147C9.64353 18.9147 8.12412 16.2813 7.93915 11.4424H12.9598C12.7748 16.2813 11.2554 18.9147 10.4495 18.9147ZM7.93915 9.5175C8.12412 4.67854 9.64353 2.04519 10.4495 2.04519C11.2554 2.04519 12.7748 4.67854 12.9598 9.5175H7.93915ZM7.4635 2.60661C6.60471 4.38446 6.12906 6.91088 6.02337 9.5175H2.16538C2.52211 6.34945 4.62286 3.7161 7.4635 2.60661ZM2.16538 11.4424H6.02337C6.11585 14.0356 6.60471 16.5754 7.4635 18.3533C4.62286 17.2438 2.52211 14.6104 2.16538 11.4424ZM13.4355 18.3533C14.2943 16.5754 14.7699 14.049 14.8756 11.4424H18.7336C18.3768 14.6104 16.2761 17.2438 13.4355 18.3533Z" fill="#0087C8"/>
</svg>
