<svg width="21" height="21" viewBox="0 0 21 21" fill="none" xmlns="http://www.w3.org/2000/svg">
  <path
    d="M19.5334 18.8345L12.7423 8.86251L11.976 7.73966L7.11387 0.601527L6.7175 0.0133667H0.745544L2.1989 2.15213L8.65971 11.6429L9.42602 12.7658L14.6184 20.3985L15.0148 20.9866H20.9868L19.5334 18.8479V18.8345ZM15.7283 19.6098L10.3377 11.683L9.57136 10.5602L3.32195 1.36346H6.01725L11.0776 8.79567L11.8439 9.91852L18.4368 19.5964H15.7415L15.7283 19.6098Z"
    fill="#0087C8" />
  <path
    d="M9.58458 10.5602L10.3509 11.683L9.43925 12.7524L2.44996 20.9733H0.732361L8.67293 11.6296L9.58458 10.5602Z"
    fill="#0087C8" />
  <path
    d="M20.2733 0L12.7555 8.86251L11.8439 9.93189L11.0776 8.79567L11.9892 7.72629L17.0759 1.72438L18.5557 0H20.2733Z"
    fill="#0087C8" />
</svg>
